<svg class="wheel-svg" viewBox="0 0 400 400">
<g class="record">
<defs>
</defs>
<g id="slice-container">
<g class="slice-component thesis-slice" data-slice="0" data-pair="0" data-type="thesis" transform="rotate(0.0 200 200)">
<path d="M 240.0,130.71796769724492 A 80.0,80.0 0 0,1 240.0,269.28203230275506 L 222.5,238.97114317029974 A 45.0,45.0 0 0,0 222.5,161.02885682970026 Z" fill="#C6E5B3" stroke="#888" stroke-width="0.5"/>
<path d="M 257.5,100.40707856478957 A 114.99999999999999,114.99999999999999 0 0,1 257.5,299.5929214352104 L 240.0,269.28203230275506 A 80.0,80.0 0 0,0 240.0,130.71796769724492 Z" fill="#FFFFFF" stroke="#888" stroke-width="0.5"/>
<path d="M 275.0,70.09618943233423 A 149.99999999999997,149.99999999999997 0 0,1 275.0,329.9038105676658 L 257.5,299.5929214352104 A 114.99999999999999,114.99999999999999 0 0,0 257.5,100.40707856478957 Z" fill="#F9C6CC" stroke="#888" stroke-width="0.5"/>
<path id="slice-0-arc-0" d="M 235.0,139.3782217350893 A 70.0,70.0 0 0,1 235.0,260.6217782649107" fill="none"/>
<text font-size="8" fill="green"><textPath href="#slice-0-arc-0" startOffset="50%" text-anchor="middle">Strategic power projection</textPath></text>
<path id="slice-0-arc-1" d="M 252.5,109.06733260263395 A 104.99999999999999,104.99999999999999 0 0,1 252.5,290.93266739736606" fill="none"/>
<text font-size="10" fill="black"><textPath href="#slice-0-arc-1" startOffset="50%" text-anchor="middle">Putin initiates war</textPath></text>
<path id="slice-0-arc-2" d="M 270.0,78.75644347017862 A 139.99999999999997,139.99999999999997 0 0,1 270.0,321.2435565298214" fill="none"/>
<text font-size="14" fill="red"><textPath href="#slice-0-arc-2" startOffset="50%" text-anchor="middle">Destructive aggression</textPath></text>
<line x1="200" y1="200" x2="275.0" y2="70.0961894323342" stroke="#888" stroke-width="1"/>
<line x1="200" y1="200" x2="275.0" y2="329.9038105676658" stroke="#888" stroke-width="1"/>
<path class="clickable-slice" data-slice="0" data-pair="0" data-type="thesis" d="M 200,200 L 275.0,70.0961894323342 A 150,150 0 0,1 275.0,329.9038105676658 Z" fill="transparent" stroke="transparent"/>
</g>
<g class="slice-component antithesis-slice" data-slice="1" data-pair="2" data-type="antithesis" transform="rotate(0.0 200 200)">
<path d="M 240.0,130.71796769724492 A 80.0,80.0 0 0,1 240.0,269.28203230275506 L 222.5,238.97114317029974 A 45.0,45.0 0 0,0 222.5,161.02885682970026 Z" fill="#C6E5B3" stroke="#888" stroke-width="0.5"/>
<path d="M 257.5,100.40707856478957 A 114.99999999999999,114.99999999999999 0 0,1 257.5,299.5929214352104 L 240.0,269.28203230275506 A 80.0,80.0 0 0,0 240.0,130.71796769724492 Z" fill="#FFFFFF" stroke="#888" stroke-width="0.5"/>
<path d="M 275.0,70.09618943233423 A 149.99999999999997,149.99999999999997 0 0,1 275.0,329.9038105676658 L 257.5,299.5929214352104 A 114.99999999999999,114.99999999999999 0 0,0 257.5,100.40707856478957 Z" fill="#F9C6CC" stroke="#888" stroke-width="0.5"/>
<path id="slice-1-arc-0" d="M 235.0,139.3782217350893 A 70.0,70.0 0 0,1 235.0,260.6217782649107" fill="none"/>
<text font-size="8" fill="green"><textPath href="#slice-1-arc-0" startOffset="50%" text-anchor="middle">Strategic military strength maintained</textPath></text>
<path id="slice-1-arc-1" d="M 252.5,109.06733260263395 A 104.99999999999999,104.99999999999999 0 0,1 252.5,290.93266739736606" fill="none"/>
<text font-size="10" fill="black"><textPath href="#slice-1-arc-1" startOffset="50%" text-anchor="middle">Russian military dominance persists</textPath></text>
<path id="slice-1-arc-2" d="M 270.0,78.75644347017862 A 139.99999999999997,139.99999999999997 0 0,1 270.0,321.2435565298214" fill="none"/>
<text font-size="14" fill="red"><textPath href="#slice-1-arc-2" startOffset="50%" text-anchor="middle">Total defeat inevitable</textPath></text>
<line x1="200" y1="200" x2="275.0" y2="70.0961894323342" stroke="#888" stroke-width="1"/>
<line x1="200" y1="200" x2="275.0" y2="329.9038105676658" stroke="#888" stroke-width="1"/>
<path class="clickable-slice" data-slice="1" data-pair="2" data-type="antithesis" d="M 200,200 L 275.0,70.0961894323342 A 150,150 0 0,1 275.0,329.9038105676658 Z" fill="transparent" stroke="transparent"/>
</g>
<g class="slice-component thesis-slice" data-slice="2" data-pair="1" data-type="thesis" transform="rotate(90.0 200 200)">
<path d="M 240.0,130.71796769724492 A 80.0,80.0 0 0,1 240.0,269.28203230275506 L 222.5,238.97114317029974 A 45.0,45.0 0 0,0 222.5,161.02885682970026 Z" fill="#C6E5B3" stroke="#888" stroke-width="0.5"/>
<path d="M 257.5,100.40707856478957 A 114.99999999999999,114.99999999999999 0 0,1 257.5,299.5929214352104 L 240.0,269.28203230275506 A 80.0,80.0 0 0,0 240.0,130.71796769724492 Z" fill="#FFFFFF" stroke="#888" stroke-width="0.5"/>
<path d="M 275.0,70.09618943233423 A 149.99999999999997,149.99999999999997 0 0,1 275.0,329.9038105676658 L 257.5,299.5929214352104 A 114.99999999999999,114.99999999999999 0 0,0 257.5,100.40707856478957 Z" fill="#F9C6CC" stroke="#888" stroke-width="0.5"/>
<path id="slice-2-arc-0" d="M 235.0,139.3782217350893 A 70.0,70.0 0 0,1 235.0,260.6217782649107" fill="none"/>
<text font-size="8" fill="green"><textPath href="#slice-2-arc-0" startOffset="50%" text-anchor="middle">Liberation and sovereignty protected</textPath></text>
<path id="slice-2-arc-1" d="M 252.5,109.06733260263395 A 104.99999999999999,104.99999999999999 0 0,1 252.5,290.93266739736606" fill="none"/>
<text font-size="10" fill="black"><textPath href="#slice-2-arc-1" startOffset="50%" text-anchor="middle">Ukraine resists invasion</textPath></text>
<path id="slice-2-arc-2" d="M 270.0,78.75644347017862 A 139.99999999999997,139.99999999999997 0 0,1 270.0,321.2435565298214" fill="none"/>
<text font-size="14" fill="red"><textPath href="#slice-2-arc-2" startOffset="50%" text-anchor="middle">Endless conflict and destruction</textPath></text>
<line x1="200" y1="200" x2="275.0" y2="70.0961894323342" stroke="#888" stroke-width="1"/>
<line x1="200" y1="200" x2="275.0" y2="329.9038105676658" stroke="#888" stroke-width="1"/>
<path class="clickable-slice" data-slice="2" data-pair="1" data-type="thesis" d="M 200,200 L 275.0,70.0961894323342 A 150,150 0 0,1 275.0,329.9038105676658 Z" fill="transparent" stroke="transparent"/>
</g>
<g class="slice-component antithesis-slice" data-slice="3" data-pair="3" data-type="antithesis" transform="rotate(90.0 200 200)">
<path d="M 240.0,130.71796769724492 A 80.0,80.0 0 0,1 240.0,269.28203230275506 L 222.5,238.97114317029974 A 45.0,45.0 0 0,0 222.5,161.02885682970026 Z" fill="#C6E5B3" stroke="#888" stroke-width="0.5"/>
<path d="M 257.5,100.40707856478957 A 114.99999999999999,114.99999999999999 0 0,1 257.5,299.5929214352104 L 240.0,269.28203230275506 A 80.0,80.0 0 0,0 240.0,130.71796769724492 Z" fill="#FFFFFF" stroke="#888" stroke-width="0.5"/>
<path d="M 275.0,70.09618943233423 A 149.99999999999997,149.99999999999997 0 0,1 275.0,329.9038105676658 L 257.5,299.5929214352104 A 114.99999999999999,114.99999999999999 0 0,0 257.5,100.40707856478957 Z" fill="#F9C6CC" stroke="#888" stroke-width="0.5"/>
<path id="slice-3-arc-0" d="M 235.0,139.3782217350893 A 70.0,70.0 0 0,1 235.0,260.6217782649107" fill="none"/>
<text font-size="8" fill="green"><textPath href="#slice-3-arc-0" startOffset="50%" text-anchor="middle">Stability maintained</textPath></text>
<path id="slice-3-arc-1" d="M 252.5,109.06733260263395 A 104.99999999999999,104.99999999999999 0 0,1 252.5,290.93266739736606" fill="none"/>
<text font-size="10" fill="black"><textPath href="#slice-3-arc-1" startOffset="50%" text-anchor="middle">Russian dominance persists</textPath></text>
<path id="slice-3-arc-2" d="M 270.0,78.75644347017862 A 139.99999999999997,139.99999999999997 0 0,1 270.0,321.2435565298214" fill="none"/>
<text font-size="14" fill="red"><textPath href="#slice-3-arc-2" startOffset="50%" text-anchor="middle">Oppression deepens</textPath></text>
<line x1="200" y1="200" x2="275.0" y2="70.0961894323342" stroke="#888" stroke-width="1"/>
<line x1="200" y1="200" x2="275.0" y2="329.9038105676658" stroke="#888" stroke-width="1"/>
<path class="clickable-slice" data-slice="3" data-pair="3" data-type="antithesis" d="M 200,200 L 275.0,70.0961894323342 A 150,150 0 0,1 275.0,329.9038105676658 Z" fill="transparent" stroke="transparent"/>
</g>
<g class="slice-component antithesis-slice" data-slice="4" data-pair="0" data-type="antithesis" transform="rotate(180.0 200 200)">
<path d="M 240.0,130.71796769724492 A 80.0,80.0 0 0,1 240.0,269.28203230275506 L 222.5,238.97114317029974 A 45.0,45.0 0 0,0 222.5,161.02885682970026 Z" fill="#C6E5B3" stroke="#888" stroke-width="0.5"/>
<path d="M 257.5,100.40707856478957 A 114.99999999999999,114.99999999999999 0 0,1 257.5,299.5929214352104 L 240.0,269.28203230275506 A 80.0,80.0 0 0,0 240.0,130.71796769724492 Z" fill="#FFFFFF" stroke="#888" stroke-width="0.5"/>
<path d="M 275.0,70.09618943233423 A 149.99999999999997,149.99999999999997 0 0,1 275.0,329.9038105676658 L 257.5,299.5929214352104 A 114.99999999999999,114.99999999999999 0 0,0 257.5,100.40707856478957 Z" fill="#F9C6CC" stroke="#888" stroke-width="0.5"/>
<path id="slice-4-arc-0" d="M 235.0,139.3782217350893 A 70.0,70.0 0 0,1 235.0,260.6217782649107" fill="none"/>
<text font-size="8" fill="green"><textPath href="#slice-4-arc-0" startOffset="50%" text-anchor="middle">Mutual understanding</textPath></text>
<path id="slice-4-arc-1" d="M 252.5,109.06733260263395 A 104.99999999999999,104.99999999999999 0 0,1 252.5,290.93266739736606" fill="none"/>
<text font-size="10" fill="black"><textPath href="#slice-4-arc-1" startOffset="50%" text-anchor="middle">Peace negotiations</textPath></text>
<path id="slice-4-arc-2" d="M 270.0,78.75644347017862 A 139.99999999999997,139.99999999999997 0 0,1 270.0,321.2435565298214" fill="none"/>
<text font-size="14" fill="red"><textPath href="#slice-4-arc-2" startOffset="50%" text-anchor="middle">Passive submission</textPath></text>
<line x1="200" y1="200" x2="275.0" y2="70.0961894323342" stroke="#888" stroke-width="1"/>
<line x1="200" y1="200" x2="275.0" y2="329.9038105676658" stroke="#888" stroke-width="1"/>
<path class="clickable-slice" data-slice="4" data-pair="0" data-type="antithesis" d="M 200,200 L 275.0,70.0961894323342 A 150,150 0 0,1 275.0,329.9038105676658 Z" fill="transparent" stroke="transparent"/>
</g>
<g class="slice-component thesis-slice" data-slice="5" data-pair="2" data-type="thesis" transform="rotate(180.0 200 200)">
<path d="M 240.0,130.71796769724492 A 80.0,80.0 0 0,1 240.0,269.28203230275506 L 222.5,238.97114317029974 A 45.0,45.0 0 0,0 222.5,161.02885682970026 Z" fill="#C6E5B3" stroke="#888" stroke-width="0.5"/>
<path d="M 257.5,100.40707856478957 A 114.99999999999999,114.99999999999999 0 0,1 257.5,299.5929214352104 L 240.0,269.28203230275506 A 80.0,80.0 0 0,0 240.0,130.71796769724492 Z" fill="#FFFFFF" stroke="#888" stroke-width="0.5"/>
<path d="M 275.0,70.09618943233423 A 149.99999999999997,149.99999999999997 0 0,1 275.0,329.9038105676658 L 257.5,299.5929214352104 A 114.99999999999999,114.99999999999999 0 0,0 257.5,100.40707856478957 Z" fill="#F9C6CC" stroke="#888" stroke-width="0.5"/>
<path id="slice-5-arc-0" d="M 235.0,139.3782217350893 A 70.0,70.0 0 0,1 235.0,260.6217782649107" fill="none"/>
<text font-size="8" fill="green"><textPath href="#slice-5-arc-0" startOffset="50%" text-anchor="middle">Ukrainian victory approaches</textPath></text>
<path id="slice-5-arc-1" d="M 252.5,109.06733260263395 A 104.99999999999999,104.99999999999999 0 0,1 252.5,290.93266739736606" fill="none"/>
<text font-size="10" fill="black"><textPath href="#slice-5-arc-1" startOffset="50%" text-anchor="middle">Russian offensive weakens</textPath></text>
<path id="slice-5-arc-2" d="M 270.0,78.75644347017862 A 139.99999999999997,139.99999999999997 0 0,1 270.0,321.2435565298214" fill="none"/>
<text font-size="14" fill="red"><textPath href="#slice-5-arc-2" startOffset="50%" text-anchor="middle">Military resources drain rapidly</textPath></text>
<line x1="200" y1="200" x2="275.0" y2="70.0961894323342" stroke="#888" stroke-width="1"/>
<line x1="200" y1="200" x2="275.0" y2="329.9038105676658" stroke="#888" stroke-width="1"/>
<path class="clickable-slice" data-slice="5" data-pair="2" data-type="thesis" d="M 200,200 L 275.0,70.0961894323342 A 150,150 0 0,1 275.0,329.9038105676658 Z" fill="transparent" stroke="transparent"/>
</g>
<g class="slice-component antithesis-slice" data-slice="6" data-pair="1" data-type="antithesis" transform="rotate(270.0 200 200)">
<path d="M 240.0,130.71796769724492 A 80.0,80.0 0 0,1 240.0,269.28203230275506 L 222.5,238.97114317029974 A 45.0,45.0 0 0,0 222.5,161.02885682970026 Z" fill="#C6E5B3" stroke="#888" stroke-width="0.5"/>
<path d="M 257.5,100.40707856478957 A 114.99999999999999,114.99999999999999 0 0,1 257.5,299.5929214352104 L 240.0,269.28203230275506 A 80.0,80.0 0 0,0 240.0,130.71796769724492 Z" fill="#FFFFFF" stroke="#888" stroke-width="0.5"/>
<path d="M 275.0,70.09618943233423 A 149.99999999999997,149.99999999999997 0 0,1 275.0,329.9038105676658 L 257.5,299.5929214352104 A 114.99999999999999,114.99999999999999 0 0,0 257.5,100.40707856478957 Z" fill="#F9C6CC" stroke="#888" stroke-width="0.5"/>
<path id="slice-6-arc-0" d="M 235.0,139.3782217350893 A 70.0,70.0 0 0,1 235.0,260.6217782649107" fill="none"/>
<text font-size="8" fill="green"><textPath href="#slice-6-arc-0" startOffset="50%" text-anchor="middle">Immediate peace achieved</textPath></text>
<path id="slice-6-arc-1" d="M 252.5,109.06733260263395 A 104.99999999999999,104.99999999999999 0 0,1 252.5,290.93266739736606" fill="none"/>
<text font-size="10" fill="black"><textPath href="#slice-6-arc-1" startOffset="50%" text-anchor="middle">Ukraine surrenders to invasion</textPath></text>
<path id="slice-6-arc-2" d="M 270.0,78.75644347017862 A 139.99999999999997,139.99999999999997 0 0,1 270.0,321.2435565298214" fill="none"/>
<text font-size="14" fill="red"><textPath href="#slice-6-arc-2" startOffset="50%" text-anchor="middle">Freedom and independence lost</textPath></text>
<line x1="200" y1="200" x2="275.0" y2="70.0961894323342" stroke="#888" stroke-width="1"/>
<line x1="200" y1="200" x2="275.0" y2="329.9038105676658" stroke="#888" stroke-width="1"/>
<path class="clickable-slice" data-slice="6" data-pair="1" data-type="antithesis" d="M 200,200 L 275.0,70.0961894323342 A 150,150 0 0,1 275.0,329.9038105676658 Z" fill="transparent" stroke="transparent"/>
</g>
<g class="slice-component thesis-slice" data-slice="7" data-pair="3" data-type="thesis" transform="rotate(270.0 200 200)">
<path d="M 240.0,130.71796769724492 A 80.0,80.0 0 0,1 240.0,269.28203230275506 L 222.5,238.97114317029974 A 45.0,45.0 0 0,0 222.5,161.02885682970026 Z" fill="#C6E5B3" stroke="#888" stroke-width="0.5"/>
<path d="M 257.5,100.40707856478957 A 114.99999999999999,114.99999999999999 0 0,1 257.5,299.5929214352104 L 240.0,269.28203230275506 A 80.0,80.0 0 0,0 240.0,130.71796769724492 Z" fill="#FFFFFF" stroke="#888" stroke-width="0.5"/>
<path d="M 275.0,70.09618943233423 A 149.99999999999997,149.99999999999997 0 0,1 275.0,329.9038105676658 L 257.5,299.5929214352104 A 114.99999999999999,114.99999999999999 0 0,0 257.5,100.40707856478957 Z" fill="#F9C6CC" stroke="#888" stroke-width="0.5"/>
<path id="slice-7-arc-0" d="M 235.0,139.3782217350893 A 70.0,70.0 0 0,1 235.0,260.6217782649107" fill="none"/>
<text font-size="8" fill="green"><textPath href="#slice-7-arc-0" startOffset="50%" text-anchor="middle">Freedom restored</textPath></text>
<path id="slice-7-arc-1" d="M 252.5,109.06733260263395 A 104.99999999999999,104.99999999999999 0 0,1 252.5,290.93266739736606" fill="none"/>
<text font-size="10" fill="black"><textPath href="#slice-7-arc-1" startOffset="50%" text-anchor="middle">Ukrainian victory approaches</textPath></text>
<path id="slice-7-arc-2" d="M 270.0,78.75644347017862 A 139.99999999999997,139.99999999999997 0 0,1 270.0,321.2435565298214" fill="none"/>
<text font-size="14" fill="red"><textPath href="#slice-7-arc-2" startOffset="50%" text-anchor="middle">Vengeance intensifies</textPath></text>
<line x1="200" y1="200" x2="275.0" y2="70.0961894323342" stroke="#888" stroke-width="1"/>
<line x1="200" y1="200" x2="275.0" y2="329.9038105676658" stroke="#888" stroke-width="1"/>
<path class="clickable-slice" data-slice="7" data-pair="3" data-type="thesis" d="M 200,200 L 275.0,70.0961894323342 A 150,150 0 0,1 275.0,329.9038105676658 Z" fill="transparent" stroke="transparent"/>
</g>
</g>
<circle cx="200" cy="200" r="30.0" fill="#FFC107"/>
<text x="200" y="200" font-size="16" font-weight="bold" text-anchor="middle" alignment-baseline="middle">Core</text>
</g>
</svg>