<svg width="400" height="400" xmlns="http://www.w3.org/2000/svg">
<defs>
<path id="arc0" d="M 260.0,200.0 A 60.0,60.0 0 0,1 170.0,251.96152422706632" fill="none"/>
<path id="arc1" d="M 295.0,200.0 A 94.99999999999999,94.99999999999999 0 0,1 152.50000000000003,282.2724133595217" fill="none"/>
<path id="arc2" d="M 330.0,200.0 A 129.99999999999997,129.99999999999997 0 0,1 135.00000000000006,312.583302491977" fill="none"/>
<path id="arc3" d="M 170.0,251.96152422706632 A 60.0,60.0 0 0,1 169.99999999999997,148.03847577293368" fill="none"/>
<path id="arc4" d="M 152.50000000000003,282.2724133595217 A 94.99999999999999,94.99999999999999 0 0,1 152.49999999999997,117.72758664047836" fill="none"/>
<path id="arc5" d="M 135.00000000000006,312.583302491977 A 129.99999999999997,129.99999999999997 0 0,1 134.99999999999994,87.41669750802303" fill="none"/>
<path id="arc6" d="M 169.99999999999997,148.03847577293368 A 60.0,60.0 0 0,1 260.0,199.99999999999997" fill="none"/>
<path id="arc7" d="M 152.49999999999997,117.72758664047836 A 94.99999999999999,94.99999999999999 0 0,1 295.0,199.99999999999997" fill="none"/>
<path id="arc8" d="M 134.99999999999994,87.41669750802303 A 129.99999999999997,129.99999999999997 0 0,1 330.0,199.99999999999997" fill="none"/>
</defs>
<circle cx="200" cy="200" r="149.99999999999997" fill="#F9C6CC" stroke="black" stroke-width="1"/>
<circle cx="200" cy="200" r="114.99999999999999" fill="#FFFFFF" stroke="black" stroke-width="1"/>
<circle cx="200" cy="200" r="80.0" fill="#C6E5B3" stroke="black" stroke-width="1"/>
<circle cx="200" cy="200" r="30.0" fill="#FFFF99" stroke="black" stroke-width="2"/>
<text x="200" y="200" font-size="16" font-weight="bold" text-anchor="middle" alignment-baseline="middle">bruh</text>
<text font-size="6.0" fill="green"><textPath href="#arc0" startOffset="50%" text-anchor="middle">Family unity</textPath></text>
<text font-size="12.0" fill="black"><textPath href="#arc1" startOffset="50%" text-anchor="middle">Buy a house</textPath></text>
<text font-size="18" fill="red"><textPath href="#arc2" startOffset="50%" text-anchor="middle">Burden</textPath></text>
<path d="M 200,200 L 350.0,200.0 A 150,150 0 0,1 125.00000000000003,329.9038105676658 Z" fill="none" stroke="#888" stroke-width="1"/>
<text font-size="6.0" fill="green"><textPath href="#arc3" startOffset="50%" text-anchor="middle">Clarity, relief</textPath></text>
<text font-size="12.0" fill="black"><textPath href="#arc4" startOffset="50%" text-anchor="middle">Don't buy</textPath></text>
<text font-size="18" fill="red"><textPath href="#arc5" startOffset="50%" text-anchor="middle">Separation</textPath></text>
<path d="M 200,200 L 125.00000000000003,329.9038105676658 A 150,150 0 0,1 124.99999999999993,70.09618943233426 Z" fill="none" stroke="#888" stroke-width="1"/>
<text font-size="6.0" fill="green"><textPath href="#arc6" startOffset="50%" text-anchor="middle">Gheyness</textPath></text>
<text font-size="12.0" fill="black"><textPath href="#arc7" startOffset="50%" text-anchor="middle">Be homeless</textPath></text>
<text font-size="18" fill="red"><textPath href="#arc8" startOffset="50%" text-anchor="middle">Liberation</textPath></text>
<path d="M 200,200 L 124.99999999999993,70.09618943233426 A 150,150 0 0,1 350.0,199.99999999999997 Z" fill="none" stroke="#888" stroke-width="1"/>
</svg>